HIERARCHY
ROOT ui
{
	 OFFSET 0 0 0
	 CHANNELS 3 XPosition YPosition Z Position
	 EndSite
	 {
	 OFFSET 0 -1 0
	 }
}
ROOT li
{
	 OFFSET 0 0 0
	 CHANNELS 3 XPosition YPosition Z Position
	 EndSite
	 {
	 OFFSET 0 -1 0
	 }
}
ROOT ul
{
	 OFFSET 0 0 0
	 CHANNELS 3 XPosition YPosition Z Position
	 EndSite
	 {
	 OFFSET 0 -1 0
	 }
}
ROOT ll
{
	 OFFSET 0 0 0
	 CHANNELS 3 XPosition YPosition Z Position
	 EndSite
	 {
	 OFFSET 0 -1 0
	 }
}
ROOT tt
{
	 OFFSET 0 0 0
	 CHANNELS 3 XPosition YPosition Z Position
	 EndSite
	 {
	 OFFSET 0 -1 0
	 }
}
ROOT tb
{
	 OFFSET 0 0 0
	 CHANNELS 3 XPosition YPosition Z Position
	 EndSite
	 {
	 OFFSET 0 -1 0
	 }
}
ROOT td
{
	 OFFSET 0 0 0
	 CHANNELS 3 XPosition YPosition Z Position
	 EndSite
	 {
	 OFFSET 0 -1 0
	 }
}
ROOT v
{
	 OFFSET 0 0 0
	 CHANNELS 3 XPosition YPosition Z Position
	 EndSite
	 {
	 OFFSET 0 -1 0
	 }
}
ROOT bn
{
	 OFFSET 0 0 0
	 CHANNELS 3 XPosition YPosition Z Position
	 EndSite
	 {
	 OFFSET 0 -1 0
	 }
}
MOTION
Frames: 24
Frame Time: 0.002
-0.002178044080734253	-8.743159770965576E-4	0		0.4394061279296875	-2.343103271484375	0		-1.0786480712890625	0.03650540161132813	0		-0.8255302734375	-2.27697607421875	0		1.4642535400390626	-0.5981067504882812	0		3.142796142578125	0.11770841217041016	0		4.919232421875	0.17934889221191405	0		5.56913623046875	0.16588336181640626	0		-0.18826416015625	5.9399912109375	0		
-0.0028109710216522215	-0.001335556983947754	0		0.41284933471679686	-2.340046875	0		-1.14734716796875	0.03338943862915039	0		-0.826152099609375	-2.27744140625	0		1.4666824951171875	-0.5956209106445313	0		3.148002685546875	0.10914501190185547	0		4.91246044921875	0.1720287322998047	0		5.572865234375	0.1528179473876953	0		-0.1889261016845703	5.939529296875	0		
0.0026856861114501955	0.0050813560485839845	0		0.42513897705078124	-2.344764404296875	0		-1.1439296875	0.035840625762939456	0		-0.8217024536132812	-2.27400830078125	0		1.4749832763671875	-0.5992536010742188	0		3.151657958984375	0.12361710357666016	0		4.91665869140625	0.16349128723144532	0		5.5711806640625	0.17635276794433594	0		-0.17540367126464843	5.94878564453125	0		
0.006103969097137451	0.007544559955596924	0		0.417732421875	-2.33408203125	0		-1.1404918212890625	0.03929665756225586	0		-0.8202698974609375	-2.271510498046875	0		1.47742529296875	-0.5957618408203125	0		3.144978271484375	0.121298828125	0		4.9303916015625	0.18177859497070312	0		5.57785546875	0.17527674865722656	0		-0.17510031127929687	5.94730810546875	0		
0.005472465991973877	0.007099685192108155	0		0.44101287841796877	-2.3399990234375	0		-1.1492607421875	0.03200405883789063	0		-0.8358235473632812	-2.2686640625	0		1.4737191162109375	-0.600136474609375	0		3.1603427734375	0.12055786895751953	0		4.91054443359375	0.17074122619628906	0		5.5774052734375	0.17457107543945313	0		-0.17675192260742187	5.9478818359375	0		
7.984809875488282E-4	0.0037513329982757568	0		0.4124201965332031	-2.339869140625	0		-1.1567757568359376	0.03670519256591797	0		-0.8286220703125	-2.279255126953125	0		1.46416943359375	-0.597376220703125	0		3.14958984375	0.11335223388671875	0		4.92090625	0.1691257629394531	0		5.57401611328125	0.16192874145507813	0		-0.19160598754882813	5.9377314453125	0		
-0.0028729689121246337	-5.9682297706604E-4	0		0.43780035400390627	-2.3427890625	0		-1.0765035400390626	0.02868414306640625	0		-0.8749706420898438	-2.267760498046875	0		1.469461181640625	-0.6038912963867188	0		3.139037841796875	0.11516535949707031	0		4.909333984375	0.16996697998046875	0		5.5694150390625	0.17360693359375	0		-0.19224351501464843	5.93732177734375	0		
-0.025353294372558594	0.003451956033706665	0		0.4242168273925781	-2.344914306640625	0		-1.142896240234375	0.03759573364257812	0		-0.8246663208007813	-2.276161865234375	0		1.4719605712890624	-0.6013265380859375	0		3.1532919921875	0.10550713348388673	0		4.913609375	0.16151460266113282	0		5.57614501953125	0.1726664276123047	0		-0.17669622802734375	5.94461572265625	0		
0.0361268310546875	0.00286161208152771	0		0.45169998168945313	-2.345828125	0		-1.1393653564453126	0.04014580535888672	0		-0.8570332641601562	-2.268897705078125	0		1.474515869140625	-0.5977388916015625	0		3.161138427734375	0.12400444793701172	0		4.92031689453125	0.1730404052734375	0		5.57160400390625	0.18614779663085937	0		-0.17726466369628907	5.944251953125	0		
0.0026895229816436767	0.005177535057067871	0		0.4383118286132813	-2.341906005859375	0		-1.078078857421875	0.02757689666748047	0		-0.7927340698242188	-2.2815244140625	0		1.4678985595703125	-0.6049473876953125	0		3.14155908203125	0.11906255340576172	0		4.91873388671875	0.16774826049804686	0		5.56829443359375	0.17191856384277343	0		-0.1929573974609375	5.93521240234375	0		
0.023172487258911134	4.5096999406814574E-4	0		0.4358479919433594	-2.344176025390625	0		-1.1524783935546874	0.029725427627563476	0		-0.8311515502929687	-2.2810869140625	0		1.461587158203125	-0.5991358642578125	0		3.137026611328125	0.1138431396484375	0		4.9073212890625	0.16867037963867187	0		5.5650341796875	0.1594451904296875	0		-0.19439411926269531	5.935919921875	0		
-0.02717972183227539	0.0021536300182342528	0		0.40951382446289064	-2.341947998046875	0		-1.1528602294921875	0.0294372501373291	0		-0.8315304565429688	-2.281374755859375	0		1.464007568359375	-0.6094781494140625	0		3.1424853515625	0.10544320678710938	0		4.906939453125	0.1683889923095703	0		5.56476171875	0.15896112060546874	0		-0.3271929626464844	5.91624951171875	0		
0.022461605072021485	-9.846299886703491E-5	0		0.4200596923828125	-2.348427978515625	0		-1.149130615234375	0.03209682464599609	0		-0.8627189331054688	-2.274023681640625	0		1.4698148193359375	-0.6028635864257812	0		3.146452392578125	0.12009284973144531	0		4.90661083984375	0.16811886596679687	0		5.56747802734375	0.1704606475830078	0		-0.19412200927734374	5.93435107421875	0		
0.0012689199447631836	0.004076356887817383	0		0.41299176025390627	-2.33753369140625	0		-1.145328125	0.03578224563598633	0		-0.8250131225585937	-2.275011962890625	0		1.469535888671875	-0.6031105346679687	0		3.13604052734375	0.11303730010986328	0		4.9173134765625	0.16664137268066406	0		5.574412109375	0.16965823364257812	0		-0.18017474365234376	5.94383251953125	0		
0.026861839294433594	-0.005655835151672364	0		0.4107116394042969	-2.339715576171875	0		-1.153688720703125	0.02873142623901367	0		-0.829351806640625	-2.280144775390625	0		1.4662489013671876	-0.6062803344726563	0		3.139915771484375	0.117715087890625	0		4.90611279296875	0.1676090850830078	0		5.574251953125	0.16920991516113282	0		-0.1945502471923828	5.93389404296875	0		
-0.00318859601020813	7.374250292778015E-4	0		0.43441024780273435	-2.345393798828125	0		-1.07989794921875	0.026076692581176758	0		-0.7966345825195312	-2.28498974609375	0		1.4629892578125	-0.6104338989257813	0		3.160598876953125	0.11007050323486328	0		4.91691748046875	0.1661512451171875	0		5.57412548828125	0.1687735595703125	0		-0.19564846801757813	5.9347158203125	0		
-0.009458952903747559	-0.006324045181274414	0		0.40829507446289065	-2.343065673828125	0		-1.1539959716796875	0.02837429428100586	0		-0.8676807250976563	-2.278755615234375	0		1.4628494873046876	-0.6106326904296875	0		3.135511962890625	0.11234728240966797	0		4.90580859375	0.16713841247558595	0		5.5669404296875	0.17388121032714843	0		-0.1957124328613281	5.9345361328125	0		
-0.02043491554260254	-2.7157700061798093E-4	0		0.421084716796875	-2.347492919921875	0		-1.1459554443359374	0.03506493377685547	0		-0.863729736328125	-2.274989013671875	0		1.4688818359375	-0.6039374389648438	0		3.14611669921875	0.09692534637451172	0		4.91055419921875	0.15881980895996095	0		5.5668271484375	0.16828085327148437	0		-0.17957455444335937	5.94205517578125	0		
0.003633116960525513	0.006103053092956543	0		0.41626214599609374	-2.333550537109375	0		-1.1419622802734375	0.0378543701171875	0		-0.8597515258789062	-2.271203857421875	0		1.4718853759765624	-0.6001676635742188	0		3.162664306640625	0.1274064407348633	0		4.91772705078125	0.17046733093261718	0		5.57686083984375	0.17950975036621095	0		-0.17663137817382812	5.9378515625	0		
5.363630056381226E-4	0.003032088041305542	0		0.43598260498046876	-2.344084228515625	0		-1.0802303466796874	0.025512533187866213	0		-0.8300121459960937	-2.2809150390625	0		1.4656995849609376	-0.6072027587890625	0		3.13941455078125	0.11668161010742187	0		4.9165927734375	0.1652864990234375	0		5.5667490234375	0.167498046875	0		-0.18046971130371095	5.9428017578125	0		
-0.0035332980155944826	-3.0730001162737607E-6	0		0.4359281005859375	-2.34420751953125	0		-1.1501473388671875	0.0308088436126709	0		-0.8331046752929687	-2.282954833984375	0		1.4625985107421875	-0.611284912109375	0		3.13940576171875	0.11650782775878907	0		4.91658544921875	0.1650926513671875	0		5.57091845703125	0.15480848693847657	0		-0.1945659637451172	5.93297021484375	0		
-0.009656290054321288	-0.006983078956604004	0		0.43385513305664064	-2.34627734375	0		-1.1541904296875	0.02781205177307129	0		-0.8331369018554687	-2.283038330078125	0		1.4626009521484375	-0.611416259765625	0		3.141164306640625	0.10330440521240235	0		4.9056259765625	0.16612290954589845	0		5.563794921875	0.15478175354003906	0		-0.32683935546875	5.913505859375	0		
5.81991970539093E-4	0.0027279410362243653	0		0.3928306884765625	-2.3465576171875	0		-1.1460107421875	0.03458975601196289	0		-0.8301088256835938	-2.28116748046875	0		1.465707275390625	-0.6075982666015625	0		3.145505859375	0.11806185150146484	0		4.91051025390625	0.15784060668945313	0		5.5667734375	0.16638307189941406	0		-0.18005390930175783	5.9425087890625	0		
0.02562467384338379	0.0011534440517425538	0		0.43793148803710935	-2.342542236328125	0		-1.1459422607421874	0.034542144775390624	0		-0.86399072265625	-2.275545166015625	0		1.468819091796875	-0.6047704467773437	0		3.145396728515625	0.10891072082519532	0		4.91298046875	0.17761764526367188	0		5.56041455078125	0.16806053161621093	0		-0.17984051513671875	5.9424375	0		
